<?xml version="1.0" standalone="no"?><!DOCTYPE svg PUBLIC "-//W3C//DTD SVG 1.1//EN" "http://www.w3.org/Graphics/SVG/1.1/DTD/svg11.dtd"><svg t="1499408778041" class="icon" style="" viewBox="0 0 1024 1024" version="1.1" xmlns="http://www.w3.org/2000/svg" p-id="19421" xmlns:xlink="http://www.w3.org/1999/xlink" width="200" height="200"><defs><style type="text/css"></style></defs><path d="M867.202884 627.176183c13.599739-13.703093 13.57825-35.83209-0.088004-49.496298-13.663184-13.663184-35.793204-13.68672-49.494251-0.085958l-0.433882-0.431835L553.450041 840.898799c-82.149998 65.541739-202.545042 60.341297-278.57567-15.686261-76.030627-76.031651-81.238232-196.434881-15.696494-278.587949l384.151193-394.235876c51.628868-33.345456 121.42449-27.451212 166.605505 17.730826 45.175899 45.176922 51.068096 114.968451 17.71957 166.596296L484.156862 681.113629c-1.808182 2.838651-3.921309 5.53711-6.396687 8.013511-18.323321 18.324344-48.140417 18.326391-66.466808 0-18.326391-18.326391-18.328437-48.14451-0.00307-66.469877 2.475378-2.476401 5.176906-4.588505 8.013511-6.396687l270.477224-272.738731c1.082658-0.850367 2.134617-1.75497 3.13234-2.75167 13.694907-13.693884 13.694907-35.896558 0-49.589418-13.691837-13.69286-35.894512-13.69286-49.589418 0-0.401136 0.403183-0.75213 0.836041-1.1328 1.25355l-0.061398-0.060375L368.772948 565.730739c-2.578732 2.173502-5.104251 4.445242-7.534604 6.873548-45.922912 45.922912-45.922912 120.647801 0.002047 166.573783 45.923936 45.922912 120.647801 45.922912 166.571736 0 2.430352-2.428306 4.701069-4.955872 6.872524-7.53665L878.4306 387.489218c60.521398-79.929424 54.404074-194.573487-18.443048-267.422655C787.131221 47.212278 672.484088 41.09393 592.553641 101.614306L208.873168 496.318856c-93.01137 109.983927-87.704504 275.290857 15.94925 378.945635C327.425238 977.865263 490.433822 984.083895 600.399329 893.973598l0.274246 0.311085 266.818905-266.817881L867.202884 627.176183z" p-id="19422"></path></svg>