<?xml version="1.0" standalone="no"?><!DOCTYPE svg PUBLIC "-//W3C//DTD SVG 1.1//EN" "http://www.w3.org/Graphics/SVG/1.1/DTD/svg11.dtd"><svg t="1500862120942" class="icon" style="" viewBox="0 0 1024 1024" version="1.1" xmlns="http://www.w3.org/2000/svg" p-id="3147" xmlns:xlink="http://www.w3.org/1999/xlink" width="200" height="200"><defs><style type="text/css"></style></defs><path d="M766.487 743.3l-181.091-71.513c0 0-34.49-13.578-47.902-26.892-8.608-8.639-7.99-28.903-0.325-54.82 7.631-25.852 100.451-131.013 100.451-226.559 0-147.606-95.743-267.22-213.763-267.22s-213.665 119.614-213.665 267.22c0 91.518 82.62 200.577 92.85 220.452 10.196 19.811 7.73 50.015-0.358 59.171-12.082 13.706-56.282 27.541-56.282 27.541l-163.165 73.725c-38.161 13.9-68.007 50.339-68.007 91.455v19.486c0 44.947 35.92 72.359 80.153 72.359h658.891c44.169 0 80.153-27.41 80.153-72.359v-19.486c0-41.117-29.879-78.723-67.941-92.559v0 0zM754.277 883.406h-658.891c-14.745 0-34.067-20.786-33.291-47.547 0.781-26.694 22.083-40.855 39.135-47.026l162.124-72.619c0 0 54.951-15.458 74.956-42.544 18.642-25.202 18.576-49.364 14.777-72.1-5.228-31.114-4.839-39.037-23.611-62.095-18.707-22.927-74.924-104.186-74.924-175.797 0-115.522 77.068-220.226 169.398-220.226 92.431 0 170.535 104.706 170.535 220.226 0 74.762-60.797 144.878-79.665 177.324-20.589 35.431-23.904 50.892-25.462 65.571-1.526 14.678-2.533 48.715 9.287 67.097 11.823 18.511 68.69 42.544 68.69 42.544l181.090 71.449c17.018 6.236 41.894 26.111 42.479 49.3 0.522 23.189-21.889 46.444-36.631 46.444v0 0zM735.116 434.511c-18.836 0-34.1-9.71-34.1-30.204 0-20.461 15.263-30.14 34.1-30.14h239.679c18.771 0 32.996 9.679 32.996 30.14 0 20.494-16.304 30.204-35.205 30.204h-237.47zM785.974 572.731c-18.838 0-34.166-9.679-34.166-30.14 0-20.494 15.329-30.204 34.166-30.204h189.274c18.838 0 31.956 9.71 31.956 30.204 0 20.461-14.224 30.14-32.996 30.14h-188.234zM848.849 702.964c-18.836 0-34.035-9.679-34.035-30.141 0-20.524 15.199-30.14 34.035-30.14h126.921c18.836 0 32.994 9.613 32.994 30.14 0 20.462-15.199 30.141-34.035 30.141h-125.881z" p-id="3148"></path></svg>