<?xml version="1.0" standalone="no"?><!DOCTYPE svg PUBLIC "-//W3C//DTD SVG 1.1//EN" "http://www.w3.org/Graphics/SVG/1.1/DTD/svg11.dtd"><svg width="200" height="200" viewBox="0 0 200 200" version="1.1" xmlns="http://www.w3.org/2000/svg" xmlns:xlink="http://www.w3.org/1999/xlink"><defs><style type="text/css"><![CDATA[
@font-face { font-family: ifont; src: url(http://at.alicdn.com/t/font_1442373896_4754455.eot?#iefix) format(embedded-opentype), url(http://at.alicdn.com/t/font_1442373896_4754455.woff) format(woff), url(http://at.alicdn.com/t/font_1442373896_4754455.ttf) format(truetype), url(http://at.alicdn.com/t/font_1442373896_4754455.svg#ifont) format(svg); }

]]></style></defs><g class="transform-group"><g transform="scale(0.1953125, 0.1953125)"><path d="M511.137353 62.263066c-247.134587 0-448.197882 201.046922-448.197882 448.197882s201.063295 448.197882 448.197882 448.197882 448.197882-201.046922 448.197882-448.197882S758.27194 62.263066 511.137353 62.263066zM711.76472 661.159158c13.787004 13.788028 13.787004 36.140105 0 49.928133-6.894014 6.892991-15.928784 10.339486-24.964578 10.339486s-18.069541-3.446495-24.964578-10.339486L511.137353 560.388057 360.438119 711.087291c-6.892991 6.892991-15.928784 10.339486-24.963555 10.339486s-18.070564-3.446495-24.963555-10.339486c-13.787004-13.788028-13.787004-36.140105 0-49.928133l150.698211-150.699234L310.51101 359.76069c-13.787004-13.787004-13.787004-36.140105 0-49.927109 13.787004-13.788028 36.140105-13.788028 49.927109 0l150.699234 150.699234 150.698211-150.699234c13.789051-13.788028 36.139082-13.788028 49.928133 0 13.787004 13.787004 13.787004 36.140105 0 49.927109L561.065486 510.459924 711.76472 661.159158z" fill="#272636"></path></g></g></svg>