<?xml version="1.0" standalone="no"?><!DOCTYPE svg PUBLIC "-//W3C//DTD SVG 1.1//EN" "http://www.w3.org/Graphics/SVG/1.1/DTD/svg11.dtd"><svg width="200" height="200" viewBox="0 0 200 200" version="1.1" xmlns="http://www.w3.org/2000/svg" xmlns:xlink="http://www.w3.org/1999/xlink"><defs><style type="text/css"><![CDATA[
@font-face { font-family: ifont; src: url(http://at.alicdn.com/t/font_1442373896_4754455.eot?#iefix) format(embedded-opentype), url(http://at.alicdn.com/t/font_1442373896_4754455.woff) format(woff), url(http://at.alicdn.com/t/font_1442373896_4754455.ttf) format(truetype), url(http://at.alicdn.com/t/font_1442373896_4754455.svg#ifont) format(svg); }

]]></style></defs><g class="transform-group"><g transform="scale(0.1953125, 0.1953125)"><path d="M679.846264 249.390977l0 167.827333 47.957245 0L727.803509 249.390977c0-39.761586-32.210609-71.958892-71.936379-71.958892L607.908862 177.432085l0 47.956222 47.958268 0C669.109736 225.388307 679.846264 236.137115 679.846264 249.390977zM308.18043 273.344528c19.869536 0 35.96819-16.086373 35.96819-35.94363l0-71.934333c0-19.880793-16.098653-35.991726-35.96819-35.991726-19.868513 0-35.967166 16.110933-35.967166 35.991726l0 71.934333C272.213263 257.258155 288.311917 273.344528 308.18043 273.344528zM488.018308 177.431062 368.125707 177.431062l0 47.956222L488.018308 225.387283 488.018308 177.431062zM547.963585 273.344528c19.869536 0 35.967166-16.086373 35.967166-35.94363l0-71.934333c0-19.880793-16.09763-35.991726-35.967166-35.991726-19.868513 0-35.966143 16.110933-35.966143 35.991726l0 71.934333C511.997442 257.258155 528.095072 273.344528 547.963585 273.344528zM176.298773 776.895089 176.298773 249.390977c0-13.253862 10.735505-24.00267 23.977088-24.00267l47.957245 0 0-47.956222-47.957245 0c-39.737026 0-71.933309 32.197306-71.933309 71.958892l0 527.505136c0 39.737026 32.196283 71.933309 71.933309 71.933309l143.872758 0L344.148619 800.8732 200.275861 800.8732C187.034279 800.8732 176.298773 790.148951 176.298773 776.895089zM272.213263 417.21831l311.718511 0c13.242606 0 23.978111-10.724249 23.978111-23.979134 0-13.229303-10.734482-23.977088-23.978111-23.977088L272.213263 369.262088c-13.241582 0-23.980157 10.747785-23.980157 23.977088C248.233106 406.493038 258.971681 417.21831 272.213263 417.21831zM344.148619 537.109887 272.213263 537.109887c-13.241582 0-23.980157 10.746762-23.980157 24.001647 0 13.204743 10.738575 23.951505 23.980157 23.951505l71.935356 0c13.241582 0 23.977088-10.746762 23.977088-23.951505C368.125707 547.856649 357.389178 537.109887 344.148619 537.109887zM894.682237 666.672732c-7.340175-19.738553-18.614963-33.066093-42.618657-30.347169-3.53757 0.375553-9.846252-6.885827-11.777231-11.80179-11.416004-29.434379-22.25998-59.104119-32.608675-88.960101-6.509251-18.897396-19.693528-31.281447-37.913495-36.317137-24.632004-6.838755-50.003857-10.982122-75.048253-16.297175-36.58729-5.434779-69.65236-5.622044-109.684098 0-14.247492 2.197038-28.601408 3.976568-42.769083 6.694469-37.642319 7.261381-67.11149 23.676236-77.859275 64.48978-6.417153 24.261567-16.040325 47.76998-25.021883 71.281463-1.743714 4.542456-7.598049 11.332093-10.782577 10.910491-26.273387-3.323699-36.528961 12.741185-43.543725 33.577746-1.277086 4.828982-0.550539 9.253758 0 12.883425 10.104125 2.667759 20.174482 5.338588 27.279297 7.209192-0.502443 38.078247-1.065262 75.868945-1.437745 113.662713-0.199545 20.376073-1.006933 40.796148 0.384763 61.072961 0.680499 9.365298 4.157693 23.934109 9.261944 27.535123 3.76986 5.060249 71.269183 4.872984 83.866083 0 5.77247-2.198062 8.627495-31.914874 13.416568-49.594535l247.38325 0c6.078439 16.718777-5.560646 37.32714 13.359262 49.594535 5.65479 3.935636 78.482469 4.193509 81.746816-1.428535 3.454682-2.172479 8.432043-15.523555 8.586562-24.139793 0.956791-48.097438 0.677429-96.240925 0.278339-144.386458-0.060375-10.534937-2.403746-21.095457-3.703345-31.470759 9.19236-2.530636 19.192108-5.294586 29.188786-8.054443C895.452787 678.753885 896.425951 672.716378 894.682237 666.672732zM537.439904 752.844324c-1.990331 5.386684-9.952676 10.495028-16.228613 11.941983-8.638751 2.038426-18.219967 2.342348-27.314089 2.342348-0.024559 0.331551-0.013303 0.163729 0 0-0.004093 0-0.00921-0.002047-0.013303-0.002047-13.284561-1.37737-26.79118-1.730411-39.795355-4.447289-16.906042-3.535523-21.660322-16.159028-16.567327-38.751582 3.489474-15.479553 15.58393-16.156982 26.414603-12.57541 21.778003 7.141654 43.10882 15.873526 63.880913 25.52228C532.80228 739.172953 538.84388 749.006925 537.439904 752.844324zM472.059847 644.145669c12.481266-35.029818 23.264866-67.437925 35.921117-99.048877 2.411933-6.089695 11.718903-11.43033 18.780739-13.137205 17.141402-4.098341 34.867112-8.220219 52.323693-8.081049 53.038984 0.375553 106.090247 2.294252 159.103648 4.683672 21.765723 0.962931 36.366256 12.081153 42.465161 34.654264 7.107885 26.320459 16.532535 51.987025 25.908066 80.929194C694.773232 668.267043 585.781912 667.705248 472.059847 644.145669zM828.786435 761.909793c-13.95585 3.252067-28.507264 3.76986-40.241516 5.174859-13.416568-1.101077-24.305569-0.889253-34.643008-3.139503-12.901845-2.807952-16.966417-18.029632-5.633301-23.554462 24.683169-11.990079 50.745754-21.593807 76.982302-29.715789 10.503215-3.25616 17.751293 5.502317 18.113543 17.161868C843.820849 741.465159 847.834256 757.529019 828.786435 761.909793zM493.882875 767.126608C493.918691 766.826779 493.896178 766.988462 493.882875 767.126608L493.882875 767.126608z" fill="#272636"></path></g></g></svg>