<?xml version="1.0" standalone="no"?><!DOCTYPE svg PUBLIC "-//W3C//DTD SVG 1.1//EN" "http://www.w3.org/Graphics/SVG/1.1/DTD/svg11.dtd"><svg t="1502433662002" class="icon" style="" viewBox="0 0 1024 1024" version="1.1" xmlns="http://www.w3.org/2000/svg" p-id="4798" xmlns:xlink="http://www.w3.org/1999/xlink" width="200" height="200"><defs><style type="text/css"></style></defs><path d="M918.580767 260.008511L760.022909 72.4276a28.16299 28.16299 0 0 0-21.502615-9.980834H187.121186c-38.550306 0-69.923177 31.373894-69.923176 69.923177v759.272401c0 38.550306 31.37287 69.923177 69.923176 69.923177h668.203946c38.550306 0 69.909866-31.373894 69.909866-69.923177V278.183499a28.123058 28.123058 0 0 0-6.654231-18.174988z m-156.552066-97.971491l78.727566 93.136705h-78.727566v-93.136705z m93.296431 743.215832H187.121186c-7.506103 0-13.610508-6.104404-13.610507-13.610508v-759.272401c0-7.506103 6.104404-13.610508 13.610507-13.610508H705.716032v164.571136c0 15.548723 12.6071 28.155823 28.156846 28.155823h135.050475v580.15595c-0.001024 7.506103-6.105428 13.610508-13.598221 13.610508z" fill="#3E3A39" p-id="4799"></path><path d="M681.809333 533.144256h0.013311c15.535412 0 28.142512-12.593789 28.156846-28.142512 0.013311-15.548723-12.579455-28.155823-28.142512-28.170157l-95.766042-0.0686 100.206633-119.375814c9.995169-11.920073 8.441935-29.669125-3.464828-39.677604-11.920073-9.980834-29.682436-8.441935-39.677604 3.464827L530.330619 455.558321l-112.816805-134.384948c-10.022813-11.892428-27.744221-13.432352-39.677604-3.464828-11.905739 10.008479-13.458973 27.770842-3.464828 39.677604L474.522725 476.683123l-100.370454-0.071671h-0.013311c-15.535412 0-28.142512 12.593789-28.155822 28.142512-0.014334 15.549746 12.579455 28.156846 28.142512 28.170156l125.790455 0.090102-0.058361 63.337547-125.704449-0.090102h-0.013311c-15.535412 0-28.142512 12.593789-28.155822 28.142512-0.014334 15.548723 12.579455 28.156846 28.142512 28.170157l125.6809 0.090102-0.090102 98.195722c-0.013311 15.549746 12.579455 28.170157 28.129201 28.183467h0.027645c15.535412 0 28.142512-12.592766 28.156847-28.129201l0.090101-98.211081 125.692163 0.090102h0.01331c15.535412 0 28.142512-12.593789 28.156847-28.142512 0.013311-15.549746-12.579455-28.156846-28.142512-28.170157l-125.667589-0.090102 0.058361-63.337546 125.577487 0.091126z" fill="#3E3A39" p-id="4800"></path></svg>