<?xml version="1.0" standalone="no"?><!DOCTYPE svg PUBLIC "-//W3C//DTD SVG 1.1//EN" "http://www.w3.org/Graphics/SVG/1.1/DTD/svg11.dtd"><svg width="200" height="200" viewBox="0 0 200 200" version="1.1" xmlns="http://www.w3.org/2000/svg" xmlns:xlink="http://www.w3.org/1999/xlink"><defs><style type="text/css"><![CDATA[
@font-face { font-family: ifont; src: url(http://at.alicdn.com/t/font_1442373896_4754455.eot?#iefix) format(embedded-opentype), url(http://at.alicdn.com/t/font_1442373896_4754455.woff) format(woff), url(http://at.alicdn.com/t/font_1442373896_4754455.ttf) format(truetype), url(http://at.alicdn.com/t/font_1442373896_4754455.svg#ifont) format(svg); }

]]></style></defs><g class="transform-group"><g transform="scale(0.1953125, 0.1953125)"><path d="M870.4 137.6c9.6 0 16 6.4 16 16l0 716.8c0 9.6-6.4 16-16 16L153.6 886.4c-9.6 0-16-6.4-16-16L137.6 153.6c0-9.6 6.4-16 16-16L870.4 137.6M870.4 73.6 153.6 73.6c-44.8 0-80 35.2-80 80l0 716.8c0 44.8 35.2 80 80 80l716.8 0c44.8 0 80-35.2 80-80L950.4 153.6C950.4 110.4 913.6 73.6 870.4 73.6L870.4 73.6zM268.8 352l-32 0c-9.6 0-16-6.4-16-16l0-32c0-9.6 6.4-16 16-16l32 0c9.6 0 16 6.4 16 16l0 32C284.8 345.6 276.8 352 268.8 352zM806.4 352 382.4 352c-9.6 0-16-6.4-16-16l0-32c0-9.6 6.4-16 16-16l424 0c9.6 0 16 6.4 16 16l0 32C822.4 345.6 814.4 352 806.4 352zM806.4 544 382.4 544c-9.6 0-16-6.4-16-16l0-32c0-9.6 6.4-16 16-16l424 0c9.6 0 16 6.4 16 16l0 32C822.4 536 814.4 544 806.4 544zM806.4 734.4 382.4 734.4c-9.6 0-16-6.4-16-16l0-32c0-9.6 6.4-16 16-16l424 0c9.6 0 16 6.4 16 16l0 32C822.4 728 814.4 734.4 806.4 734.4zM268.8 544l-32 0c-9.6 0-16-6.4-16-16l0-32c0-9.6 6.4-16 16-16l32 0c9.6 0 16 6.4 16 16l0 32C284.8 536 276.8 544 268.8 544zM268.8 734.4l-32 0c-9.6 0-16-6.4-16-16l0-32c0-9.6 6.4-16 16-16l32 0c9.6 0 16 6.4 16 16l0 32C284.8 728 276.8 734.4 268.8 734.4z" fill="#272636"></path></g></g></svg>