<?xml version="1.0" standalone="no"?><!DOCTYPE svg PUBLIC "-//W3C//DTD SVG 1.1//EN"
  "http://www.w3.org/Graphics/SVG/1.1/DTD/svg11.dtd">
<svg t="1508295430278" class="icon" style="" viewBox="0 0 1024 1024" version="1.1" xmlns="http://www.w3.org/2000/svg"
     p-id="7840"
     width="200" height="200">
  <defs>
    <style type="text/css"></style>
  </defs>
  <path
    d="M121.856 58.88c-14.336 0-25.6 11.264-25.6 25.6v860.16c0 14.336 11.264 25.6 25.6 25.6s25.6-11.264 25.6-25.6v-860.16c0-13.824-11.264-25.6-25.6-25.6zM921.088 332.8c-6.144-6.144-14.848-9.216-23.552-7.68-60.928 11.776-229.888 23.04-276.992-62.464-72.192-130.56-115.712-209.408-248.832-209.408-136.704 0-152.576 83.968-153.088 87.552 0 1.536-0.512 3.072-0.512 4.608v394.24c0 8.192 4.096 15.872 10.752 20.992 6.656 4.608 15.36 6.144 23.04 3.584 25.088-8.704 100.864-27.136 150.016-10.752 15.872 5.12 29.696 14.336 45.568 25.088 32.768 22.016 73.216 48.64 150.528 48.64h5.12c104.96-1.536 194.048-49.152 258.56-137.216 47.616-65.536 64.512-130.048 65.536-132.608 2.048-9.216-0.512-17.92-6.144-24.576zM819.2 460.8c-55.296 74.752-128 113.664-217.088 115.2-64.512 1.024-94.72-18.944-126.464-39.936-17.408-11.776-35.328-23.552-57.856-31.232-19.968-6.656-41.472-9.216-62.976-9.216-32.256 0-63.488 5.632-86.016 10.752V148.992c2.56-7.68 18.944-44.032 102.4-44.032 102.912 0 134.656 57.344 204.288 183.296 56.832 102.4 211.968 101.376 288.256 93.696-9.216 21.504-23.552 50.176-44.544 78.848z"
    fill="" p-id="7841"></path>
</svg>
