<?xml version="1.0" encoding="utf-8"?>
<!-- Generator: Adobe Illustrator 16.0.0, SVG Export Plug-In . SVG Version: 6.00 Build 0)  -->
<!DOCTYPE svg PUBLIC "-//W3C//DTD SVG 1.1//EN" "http://www.w3.org/Graphics/SVG/1.1/DTD/svg11.dtd">
<svg version="1.1" id="图层_1" xmlns="http://www.w3.org/2000/svg" xmlns:xlink="http://www.w3.org/1999/xlink" x="0px" y="0px"
	 width="500px" height="500px" viewBox="0 0 500 500" enable-background="new 0 0 500 500" xml:space="preserve">
<path fill="#272536" d="M457.736,294.923c-32.189-31.119-79.413-38.848-119.097-23.224L234.948,171.542
	c16.924-38.591,9.112-84.899-23.455-116.357c-32.566-31.457-80.505-39.004-120.456-22.655l52.555,50.766
	c10.715,10.35,10.715,27.13,0,37.479l-19.4,18.741c-10.716,10.351-28.086,10.351-38.802,0L32.837,88.75
	c-16.925,38.59-9.113,84.899,23.454,116.355c32.22,31.122,79.478,38.825,119.17,23.156l103.606,100.157
	c-16.94,38.586-9.146,84.896,23.409,116.364c32.55,31.47,80.487,39.037,120.445,22.703l-52.533-50.787
	c-10.713-10.355-10.707-27.136,0.014-37.481l19.406-18.732c10.721-10.348,28.091-10.34,38.803,0.015l52.535,50.788
	C498.085,372.702,490.29,326.394,457.736,294.923z"/>
</svg>
