<?xml version="1.0" encoding="utf-8"?>
<!-- Generator: Adobe Illustrator 16.0.0, SVG Export Plug-In . SVG Version: 6.00 Build 0)  -->
<!DOCTYPE svg PUBLIC "-//W3C//DTD SVG 1.1//EN" "http://www.w3.org/Graphics/SVG/1.1/DTD/svg11.dtd">
<svg version="1.1" id="图层_1" xmlns="http://www.w3.org/2000/svg" xmlns:xlink="http://www.w3.org/1999/xlink" x="0px" y="0px"
	 width="500px" height="500px" viewBox="0 0 500 500" enable-background="new 0 0 500 500" xml:space="preserve">
<path fill-rule="evenodd" clip-rule="evenodd" fill="#272536" d="M272.267,395.667h-29.799H102.759c-1.871,0-3.43-0.625-4.521-1.716
	c-1.091-1.092-1.715-2.652-1.715-4.522V249.721v-139.71c0-1.871,0.624-3.43,1.715-4.522c1.091-1.091,2.65-1.715,4.521-1.715h139.708
	h139.709c1.871,0,3.43,0.624,4.523,1.715c1.089,1.093,1.715,2.652,1.715,4.522v139.71v9.859h24.947v-9.859v-139.71
	c0-8.42-3.587-16.215-9.277-21.907c-5.692-5.691-13.487-9.278-21.908-9.278H242.467H102.759c-8.732,0-16.528,3.431-22.142,9.043
	c-5.613,5.614-9.043,13.41-9.043,22.142v139.71v139.708c0,8.731,3.431,16.527,9.043,22.142c5.614,5.613,13.41,9.043,22.142,9.043
	h139.708h29.799V395.667z"/>
<path fill-rule="evenodd" clip-rule="evenodd" fill="#272536" d="M342.866,189.344H135.714c-4.689,0-7.817-2.495-7.817-6.236
	v-12.474c0-3.743,3.127-6.237,7.817-6.237h207.152c4.69,0,7.817,2.494,7.817,6.237v12.474
	C350.684,186.849,346.775,189.344,342.866,189.344L342.866,189.344z"/>
<path fill-rule="evenodd" clip-rule="evenodd" fill="#272536" d="M267.202,292.1h-134.24c-3.039,0-5.066-2.496-5.066-6.239v-12.473
	c0-3.742,2.027-6.236,5.066-6.236h134.24c3.039,0,5.064,2.494,5.064,6.236v12.473C272.267,288.98,269.734,292.1,267.202,292.1
	L267.202,292.1z"/>
<g>
	<path fill-rule="evenodd" clip-rule="evenodd" fill="#272536" d="M283.168,319.024c0-10.868,3.007-19.57,9.043-26.12
		c6.026-6.54,14.193-9.811,24.492-9.811c9.831,0,17.472,2.972,22.938,8.908c5.457,5.944,8.185,14.157,8.185,24.619
		c0,10.74-3.026,19.36-9.089,25.81c-6.061,6.47-14.146,9.694-24.266,9.694c-9.494,0-17.092-3.025-22.776-9.089
		C286.004,336.975,283.168,328.97,283.168,319.024L283.168,319.024z M302.031,318.075c0,12.295,4.517,18.448,13.552,18.448
		c9.196,0,13.805-6.415,13.805-19.217c0-12.404-4.4-18.611-13.2-18.611C306.746,298.695,302.031,305.155,302.031,318.075
		L302.031,318.075z M410.525,284.892l-86.368,132.923h-21.521l86.188-132.923H410.525L410.525,284.892z M365.498,386.429
		c0-10.977,3.054-19.712,9.179-26.199c6.107-6.486,14.257-9.729,24.438-9.729c9.831,0,17.474,2.918,22.939,8.745
		c5.457,5.827,8.193,14.038,8.193,24.618c0,10.859-3.073,19.532-9.179,26.019c-6.117,6.496-14.211,9.739-24.267,9.739
		c-9.432,0-17.011-3.044-22.731-9.133C368.343,404.398,365.498,396.385,365.498,386.429L365.498,386.429z M384.28,385.488
		c0,12.353,4.544,18.521,13.632,18.521c9.144,0,13.724-6.404,13.724-19.205c0-5.999-1.219-10.625-3.649-13.851
		c-2.431-3.234-5.675-4.852-9.73-4.852C388.934,366.102,384.28,372.571,384.28,385.488L384.28,385.488z"/>
</g>
</svg>
