<?xml version="1.0" encoding="utf-8"?>
<!-- Generator: Adobe Illustrator 16.0.0, SVG Export Plug-In . SVG Version: 6.00 Build 0)  -->
<!DOCTYPE svg PUBLIC "-//W3C//DTD SVG 1.1//EN" "http://www.w3.org/Graphics/SVG/1.1/DTD/svg11.dtd">
<svg version="1.1" id="图层_1" xmlns="http://www.w3.org/2000/svg" xmlns:xlink="http://www.w3.org/1999/xlink" x="0px" y="0px"
	 width="200px" height="200px" viewBox="0 0 200 200" enable-background="new 0 0 200 200" xml:space="preserve">
<path d="M69.39,55.855l-14.533,3.89l27.042-46.831C85.677,6.374,92.448,2.469,99.996,2.469c7.556,0,14.323,3.905,18.096,10.446
	l27.077,46.899l18.242-10.53L151.808,92.58l-43.296-11.603l18.585-10.726L100,23.358L73.144,69.872L69.39,55.855z M28.995,146.333
	L55.744,100l18.57,10.73L62.711,67.424L19.415,79.022l18.237,10.53L10.903,135.89c-3.77,6.543-3.77,14.354,0,20.896
	c3.777,6.542,10.544,10.447,18.101,10.447h53.553L72.114,156.79l10.447-10.457H28.995z M162.387,89.626l-3.891,14.523l-13.977-3.745
	l26.536,45.948l-0.06,0.005l-53.82-0.005v-21.251l-31.698,31.693l31.698,31.697v-21.256h53.82c7.557,0,14.319-3.903,18.098-10.446
	c3.772-6.543,3.772-14.353,0.003-20.895L162.387,89.626z"/>
</svg>
