<?xml version="1.0" standalone="no"?><!DOCTYPE svg PUBLIC "-//W3C//DTD SVG 1.1//EN" "http://www.w3.org/Graphics/SVG/1.1/DTD/svg11.dtd"><svg class="icon" style="" viewBox="0 0 1024 1024" version="1.1" xmlns="http://www.w3.org/2000/svg" p-id="2533" xmlns:xlink="http://www.w3.org/1999/xlink" width="200" height="200"><defs><style type="text/css"><![CDATA[

]]></style></defs><path d="M515.808 200.477c-340.963 0-477.348 340.964-477.348 340.964s136.385 340.964 477.348 340.964c340.964 0 477.35-340.964 477.35-340.964s-136.386-340.964-477.35-340.964zM515.808 746.018c-112.943 0-204.577-91.565-204.577-204.577s91.634-204.578 204.577-204.578c112.945 0 204.579 91.566 204.579 204.578s-91.634 204.577-204.579 204.577zM618.098 541.441c0 56.473-45.818 102.288-102.29 102.288-56.47 0-102.288-45.815-102.288-102.288 0-56.471 45.818-102.289 102.288-102.289 56.473-0.001 102.29 45.817 102.29 102.289z" p-id="2534"></path></svg>