<?xml version="1.0" standalone="no"?><!DOCTYPE svg PUBLIC "-//W3C//DTD SVG 1.1//EN" "http://www.w3.org/Graphics/SVG/1.1/DTD/svg11.dtd"><svg class="icon" style="" viewBox="0 0 1024 1024" version="1.1" xmlns="http://www.w3.org/2000/svg" p-id="1953" xmlns:xlink="http://www.w3.org/1999/xlink" width="200" height="200"><defs><style type="text/css"><![CDATA[

]]></style></defs><path d="M232.384 899.264l0-27.648c23.296-6.016 38.912-12.736 46.848-20.032 7.872-7.36 13.056-17.792 15.552-31.36 2.432-13.568 3.648-34.24 3.648-62.08l0-488.32c0-25.984-0.96-44.864-2.816-56.704C293.76 201.216 290.624 192 286.336 185.408 281.984 178.88 276.224 173.568 269.12 169.6 261.952 165.696 249.728 161.28 232.384 156.352L232.384 128.704l308.8 0c59.84 0 107.904 6.4 144.256 19.2 36.288 12.8 63.296 31.744 81.024 56.768 17.728 25.024 26.56 57.28 26.56 96.832 0 32.768-6.336 61.184-18.88 85.248-12.608 24.064-29.056 44.032-49.408 59.84-20.288 15.808-46.464 30.464-78.464 44.032l0 5.056c51.2 15.424 89.92 39.232 116.288 71.424s39.552 70.464 39.552 114.88c0 51.2-11.392 92.928-34.176 125.312-22.784 32.384-54.656 55.808-95.68 70.272-41.024 14.464-90.688 21.76-148.992 21.76L232.384 899.328zM502.784 474.176c57.216 0 100.928-13.824 131.264-41.472 30.272-27.648 45.44-67.84 45.44-120.512 0-25.984-4.224-47.488-12.736-64.64-8.448-17.152-20.16-30.784-35.008-40.96C616.96 196.416 599.36 189.184 579.008 184.832 558.72 180.544 536.704 178.368 512.96 178.368c-14.272 0-33.088 0.384-56.448 1.152C433.152 180.288 415.68 180.992 404.032 181.76l0 292.416L502.784 474.176zM404.032 845.632c27.456 2.624 58.176 3.968 92.032 3.968 49.28 0 87.616-6.208 114.88-18.624 27.264-12.416 47.04-30.784 59.264-55.04 12.224-24.256 18.304-54.656 18.304-91.2 0-36.48-6.656-66.624-20.032-90.304-13.376-23.68-33.984-41.408-61.824-53.056C578.816 529.664 540.416 523.84 491.52 523.84L404.032 523.84 404.032 845.632z" p-id="1954"></path></svg>