<?xml version="1.0" standalone="no"?><!DOCTYPE svg PUBLIC "-//W3C//DTD SVG 1.1//EN" "http://www.w3.org/Graphics/SVG/1.1/DTD/svg11.dtd"><svg t="1519724805376" class="icon" style="" viewBox="0 0 1024 1024" version="1.1" xmlns="http://www.w3.org/2000/svg" p-id="1199" xmlns:xlink="http://www.w3.org/1999/xlink" width="200" height="200"><defs><style type="text/css"></style></defs><path d="M812.856627 920.30429l-601.704045 0c-47.424102 0-85.957721-38.613436-85.957721-85.957721L125.194862 726.867696c0-11.879562 9.657964-21.457708 21.537526-21.457708 11.799744 0 21.441335 9.577123 21.441335 21.457708l0 107.478873c0 23.632233 19.266809 42.899042 42.97886 42.899042l601.704045 0c23.728424 0 42.97886-19.266809 42.97886-42.899042L855.835488 726.867696c0-11.879562 9.657964-21.457708 21.537526-21.457708 11.799744 0 21.441335 9.577123 21.441335 21.457708l0 107.478873C898.814348 881.690854 860.247984 920.30429 812.856627 920.30429L812.856627 920.30429zM819.1561 462.694037l-193.404871-193.404871c-8.394181-8.346085-8.394181-21.952988 0-30.379914 4.204765-4.204765 9.657964-6.26775 15.189957-6.26775 5.548366 0 11.000542 2.062985 15.205307 6.26775l193.404871 193.404871c8.394181 8.394181 8.394181 21.98471 0 30.379914S827.550281 471.089241 819.1561 462.694037L819.1561 462.694037zM512.004605 726.867696c-11.864212 0-21.441335-9.657964-21.441335-21.457708L490.56327 177.031972 204.868459 462.694037c-8.394181 8.394181-22.001083 8.394181-30.395264 0s-8.394181-21.98471 0-30.379914l322.341452-322.341452c4.109598-4.157693 9.609869-6.26775 15.189957-6.26775 2.78237 0 5.596462 0.511653 8.234545 1.599428 8.010441 3.357468 13.302981 11.160177 13.302981 19.85828l0 580.246337C533.54213 717.209732 523.884167 726.867696 512.004605 726.867696L512.004605 726.867696z" p-id="1200"></path></svg>