<?xml version="1.0" standalone="no"?><!DOCTYPE svg PUBLIC "-//W3C//DTD SVG 1.1//EN" "http://www.w3.org/Graphics/SVG/1.1/DTD/svg11.dtd"><svg width="200" height="200" viewBox="0 0 200 200" version="1.1" xmlns="http://www.w3.org/2000/svg" xmlns:xlink="http://www.w3.org/1999/xlink"><defs><style type="text/css"><![CDATA[
@font-face { font-family: ifont; src: url(http://at.alicdn.com/t/font_1442373896_4754455.eot?#iefix) format(embedded-opentype), url(http://at.alicdn.com/t/font_1442373896_4754455.woff) format(woff), url(http://at.alicdn.com/t/font_1442373896_4754455.ttf) format(truetype), url(http://at.alicdn.com/t/font_1442373896_4754455.svg#ifont) format(svg); }

]]></style></defs><g class="transform-group"><g transform="scale(0.1953125, 0.1953125)"><path d="M965.940512 755.756382c-10.184886-23.283623-24.213276-43.955557-41.707469-61.461836-17.494193-17.482106-38.166126-31.497403-61.44975-41.670202-8.452488-3.692424-17.268578-6.75635-26.222656-9.142425L836.560637 229.069277c0-3.189827-0.125901-6.304114-0.44015-9.369047-0.301155-3.014573-0.766485-5.977778-1.281168-8.81609-0.565044-2.964213-1.318435-5.952598-2.209814-9.017532-0.841019-2.913852-1.859306-5.777344-2.838312-8.138239-1.080734-2.762771-2.286362-5.451009-3.692424-8.212773-1.444336-2.762771-2.989393-5.451009-4.0943-7.083693-1.519877-2.511976-3.240188-4.997765-5.626263-8.012338-1.770671-2.209814-3.566523-4.294734-5.350288-6.2044-1.996286-2.1101-4.131567-4.195021-6.430015-6.178213-2.197727-1.909666-4.407541-3.667244-6.719083-5.299928-2.260174-1.632684-4.62107-3.114287-7.422115-4.772151-2.56133-1.45743-5.186113-2.788958-7.77363-3.944226-2.61169-1.155267-5.299928-2.209814-8.577382-3.315728-2.749677-0.854112-5.575903-1.632684-8.313493-2.236001-2.951119-0.628498-6.002959-1.155267-9.117245-1.456423-3.063926-0.351516-6.028139-0.477417-9.117245-0.477417l-57.607252 0c-14.254005 0-25.858047 11.604041-25.858047 25.84596 0 14.267099 11.604041 25.87114 25.858047 25.87114l57.607252 0c1.305341 0 2.524063 0.05036 3.805231 0.175254 1.143181 0.125901 2.261182 0.301155 3.478896 0.578137 1.255988 0.275975 2.486796 0.62749 3.252274 0.879292 1.193541 0.376696 2.360895 0.828932 3.553429 1.356709 1.105914 0.502597 2.147367 1.005193 2.875578 1.431242 1.155267 0.677851 2.273268 1.356709 3.403355 2.185641 1.005193 0.703031 1.984199 1.481603 2.851405 2.260174 0.929653 0.778572 1.807938 1.657864 2.750685 2.612697 0.891379 0.953826 1.695131 1.933839 2.423342 2.838312 0.665764 0.854112 1.293255 1.733405 2.372982 3.465802 0.628498 0.928646 1.205628 1.959019 1.770671 3.063926 0.539863 1.079727 1.104907 2.209814 1.720311 3.842498 0.502597 1.180448 0.891379 2.386075 1.205628 3.365081 0.388782 1.306349 0.728211 2.663058 0.9921 4.11948 0.275975 1.431242 0.502597 2.863492 0.640584 4.320922 0.137987 1.406062 0.188348 2.813131 0.188348 4.269554l0 408.23342c-25.582072 0.401876-49.896069 5.550722-72.3004 15.372006-23.296717 10.172799-43.967643 24.213276-61.42457 41.694375-17.507287 17.507287-31.535677 38.178213-41.707469 61.437663-10.197979 23.333984-15.372006 48.451733-15.372006 74.699569 0 26.800793 5.174027 52.194517 15.372006 75.528501 2.372982 5.400648 5.061219 10.87583 8.025432 16.276479L131.703503 922.258915c-1.104907 0-2.234994-0.02518-3.766957-0.201442-1.269082-0.150074-2.511976-0.376696-3.240188-0.52677-1.130087-0.251802-2.310535-0.527777-4.06912-1.131094-0.929653-0.301155-1.896572-0.677851-2.925939-1.155267-1.029366-0.452236-2.047654-0.954833-3.441629-1.783765-0.941739-0.502597-1.871392-1.079727-2.989393-1.908659-0.916559-0.628498-1.783765-1.306349-2.838312-2.261182-0.980013-0.828932-1.846212-1.708224-2.700324-2.58651-0.841019-0.879292-1.645778-1.859306-2.562337-3.039753-0.790658-0.954833-1.456423-1.959019-2.273268-3.265368-0.665764-0.979006-1.205628-2.03456-1.683044-2.963205-0.60231-1.180448-1.167354-2.436436-1.59441-3.340908-0.464323-1.280161-0.941739-2.58651-1.481603-4.496176-0.351516-1.130087-0.615404-2.260174-0.891379-3.642064-0.238708-1.306349-0.452236-2.663058-0.603317-4.294734-0.163168-1.381889-0.238708-2.813131-0.238708-4.245381L94.403576 229.044097c0-1.456423 0.087627-2.888672 0.263888-4.546536 0.125901-1.356709 0.314249-2.712411 0.603317-4.16984 0.238708-1.205628 0.527777-2.436436 0.9921-3.968399 0.401876-1.331529 0.854112-2.63687 1.079727-3.240188 0.60231-1.481603 1.242894-2.863492 2.08492-4.521356 0.489503-0.904473 0.96692-1.833118 1.871392-3.189827 0.62749-0.929653 1.217714-1.833118 1.908659-2.68723 0.841019-1.054547 1.733405-2.1101 2.448522-2.888672 0.842026-0.879292 1.683044-1.758585 3.02666-2.888672 0.828932-0.728211 1.708224-1.406062 2.875578-2.209814 0.9921-0.728211 2.08492-1.406062 2.952126-1.908659 1.029366-0.578137 2.083913-1.131094 3.013566-1.557143 1.193541-0.477417 2.386075-0.954833 3.465802-1.306349 1.104907-0.401876 2.298448-0.703031 3.478896-0.980013 1.143181-0.225615 2.273268-0.452236 3.453716-0.57713 1.255988-0.100721 2.537157-0.176261 3.818325-0.176261l57.607252 0c14.254005 0 25.858047-11.604041 25.858047-25.87114 0-14.241919-11.604041-25.84596-25.858047-25.84596l-57.607252 0c-3.07702 0-6.127852 0.151081-9.130339 0.477417-3.063926 0.301155-6.078499 0.803752-9.004438 1.456423-2.913852 0.603317-5.814611 1.406062-8.778823 2.360895-2.800038 0.929653-5.500362 1.984199-8.225866 3.189827-2.68723 1.180448-5.337194 2.511976-8.012338 4.043939-2.549243 1.481603-4.948412 3.063926-7.008152 4.521356-2.511976 1.758585-4.910138 3.642064-6.75635 5.274747-2.184634 1.883479-4.244374 3.918038-6.630449 6.329294-1.858298 2.00938-3.65415 4.11948-5.437915 6.329294-1.833118 2.310535-3.516163 4.72179-4.948412 6.957792-1.669951 2.511976-3.1022 5.074313-4.709704 8.138239-1.193541 2.386075-2.323628 4.872871-3.65415 8.087879-1.09282 2.762771-2.072834 5.550722-2.68723 7.862264-0.9921 3.189827-1.783765 6.354474-2.286362 9.142425-0.590224 3.063926-1.029366 6.12886-1.293255 8.967171-0.301155 3.063926-0.489503 6.2044-0.489503 9.369047l0 652.398728c0 3.164647 0.188348 6.329294 0.464323 9.092065 0.289069 3.189827 0.753391 6.253753 1.293255 8.967171 0.590224 3.240188 1.368795 6.354474 2.122187 8.84127 0.816846 2.888672 1.783765 5.676623 3.139467 9.142425 1.104907 2.587517 2.222908 5.099493 3.579617 7.711183 1.406062 2.68723 2.825218 5.299928 4.345095 7.660823 1.61959 2.511976 3.290548 4.898052 5.010859 7.058512 1.821032 2.285355 3.692424 4.521356 5.68871 6.581096 2.03456 2.160461 4.106386 4.143653 6.090586 5.826697 2.248088 1.959019 4.622077 3.892858 6.882251 5.451009 2.449529 1.758585 5.010859 3.391269 7.220673 4.62107 2.599603 1.50779 5.287841 2.863492 7.899531 4.043939 2.900759 1.306349 5.814611 2.436436 8.099965 3.114287 2.813131 0.954833 5.777344 1.783765 9.3066 2.58651 2.888672 0.552957 5.801517 1.029366 8.212773 1.281168 2.875578 0.376696 5.940512 0.552957 9.670202 0.552957l526.272135 0c15.974316 14.467533 34.335715 26.172295 54.592679 34.762771 23.321897 9.920997 48.740801 14.94495 75.528501 14.94495 26.222656 0 51.340405-5.023953 74.649208-14.94495 23.296717-9.896824 43.980737-23.78622 61.47493-41.268326 17.469013-17.481099 31.496396-38.153033 41.707469-61.461836 10.197979-23.308804 15.372006-48.702527 15.372006-75.528501C981.31151 804.208114 976.137484 779.090365 965.940512 755.756382zM734.595952 736.114822c0-8.79091 2.951119-16.075037 9.004438-22.32879 6.065406-6.22958 13.261906-9.243146 22.002455-9.243146 8.76573 0 16.06295 3.039753 22.304617 9.293507 6.241667 6.22958 9.28142 13.513707 9.28142 22.279437l0 106.498127 72.237953 0c8.74055 0 15.93705 3.013566 21.990369 9.217966 6.078499 6.253753 9.029618 13.563061 9.029618 22.32879 0 8.766737-2.951119 15.974316-9.004438 22.053823-6.053319 6.053319-13.248812 8.992352-22.014542 8.992352l-103.822983 0c-8.76573 0-15.96223-2.939032-22.027635-8.992352-6.041233-6.078499-8.980265-13.287086-8.980265-22.053823L734.596959 736.114822zM295.543987 255.944604l0.063454 0 1.281168-0.05036c4.257468-0.125901 29.575651-0.175254 75.226338-0.175254 62.768185 0 147.992068 0.125901 188.996506 0.175254l23.635139 0c15.497907 0 31.309055-7.861257 41.268326-20.520852 9.934091-12.609235 13.248812-28.45765 9.318687-44.658588L623.966259 143.896761c-4.445815-18.260678-25.556892-45.43716-65.530956-45.43716l-19.429039 0.02518-8.113059-0.02518c-2.989393-11.403607-7.874351-29.689465-10.122439-38.078499-5.513456-21.047622-30.856819-43.804476-62.177961-43.880016l-14.341632-0.05036-23.912121 0.05036c-30.606024 0-55.873847 22.580592-61.738818 43.528501-2.461616 8.891631-7.711183 30.140694-9.745743 38.430015l-8.477668-0.05036-25.82078 0.05036c-27.038494 0-53.901734 24.438891-58.962954 45.46234-2.00938 8.338674-5.476189 22.229077-9.469768 38.203393l-2.083913 8.389034c-4.006673 15.899783-0.716125 31.697838 9.255233 44.483334C263.356646 247.907085 279.54449 255.944604 295.543987 255.944604zM573.794215 156.555349l11.314973 46.316452c0.075541 0.376696 0.112807 0.62749 0.163168 0.728211-0.338422 0.301155-0.803752 0.60231-0.502597 0.628498l-33.493689-0.02518c-43.42778-0.05036-119.785213-0.150074-177.906141-0.150074-46.693148 0-72.815083 0.05036-77.662774 0.176261-0.351516-0.100721-1.155267-0.477417-1.481603-1.131094l2.900759-11.578861c3.67933-14.793869 6.843977-27.529004 8.200686-33.707217 1.306349-2.787951 7.672909-7.435208 9.305593-7.610462l25.745239-0.05036 14.857323 0.05036c20.73438 0 37.236474-12.584055 42.021718-32.049353l3.201914-12.86003c2.675144-10.801297 6.115766-24.665513 7.635643-30.342136 0.628498-1.356709 5.902238-6.68081 12.257719-6.68081l23.911114-0.05036 14.154292 0.02518c6.618363 0.02518 12.005917 5.022945 12.395707 5.425829 2.813131 10.499134 9.582575 36.042932 11.830663 44.784489 4.898052 18.686727 21.538132 31.748198 40.463567 31.748198l15.874603 0.05036 19.868182-0.05036C569.411854 150.200875 572.953196 155.073746 573.794215 156.555349zM600.89717 355.05889c-4.408549-3.089106-9.658116-4.746971-15.171572-4.746971-8.854364 0-17.230304 4.14466-22.492965 11.176985L440.472129 539.445406c-0.201442 0.351516-0.879292 0.854112-0.803752 0.928646-0.314249-0.05036-0.941739-0.52677-1.306349-1.155267L315.676057 361.388184c-5.148846-6.831891-13.688962-11.077272-22.304617-11.077272-5.476189 0-10.587769 1.657864-14.605521 4.697617-12.483334 8.263133-15.874603 24.413711-7.77363 37.700796l137.341853 197.673602-99.678323 0c-9.845457 0-18.812628 9.017532-18.812628 18.913349 0 10.85065 8.615656 20.018256 18.812628 20.018256l103.822983 0 0 61.789179-103.822983 0c-10.021718 0-18.812628 9.143433-18.812628 19.541846 0 10.348053 8.79091 19.414938 18.812628 19.414938l103.822983 0 0 95.647477c0 14.793869 11.881024 26.39791 27.051588 26.39791 15.096031 0 26.925687-11.604041 26.925687-26.39791l-0.013094-95.647477 103.80989 0c10.411507 0 18.888168-8.715369 18.888168-19.414938 0-10.775109-8.477668-19.541846-18.888168-19.541846L466.442983 691.103711l0-61.789179 103.80989 0c10.586762 0 18.888168-8.79091 18.888168-20.018256 0-10.24834-8.652922-18.913349-18.888168-18.913349l-98.975292 0 136.701268-197.723962C616.293349 380.251172 613.179063 363.749079 600.89717 355.05889z" fill="#272636"></path></g></g></svg>