<?xml version="1.0" standalone="no"?><!DOCTYPE svg PUBLIC "-//W3C//DTD SVG 1.1//EN" "http://www.w3.org/Graphics/SVG/1.1/DTD/svg11.dtd"><svg t="1500972318487" class="icon" style="" fill="#ffffff" viewBox="0 0 1024 1024" version="1.1" xmlns="http://www.w3.org/2000/svg" p-id="2801" xmlns:xlink="http://www.w3.org/1999/xlink" width="200" height="200"><defs><style type="text/css"></style></defs><path d="M690.030324 568.871353c80.84823-56.43234 133.856372-150.002445 133.856372-256.076665 0-172.454515-139.80277-312.259282-312.257285-312.259282s-312.255287 139.804768-312.255286 312.259282c0 105.947361 52.888275 199.410584 133.573686 255.8649C150.989848 639.973405 21.934145 816.699177 21.934145 1023.941065c0 0.019978 0.001998 0.059933 0.001998 0.059934l87.668657 0c0-0.24273-0.03596-0.476471-0.03596-0.718203 0-205.50282 154.714213-374.461216 353.960979-397.764341 2.114652-0.189789 56.006813-4.938517 100.231708 0.75616 1.149723 0.15283 2.300446 0.305661 3.447172 0.467481 0.17081 0.023973 0.340622 0.049945 0.511432 0.074917 194.322234 27.764172 343.799262 194.469071 343.799262 396.465783 0 0.241732-0.03596 0.475472-0.03596 0.718203l88.980201-0.019978c0 0 0.001998-0.019978 0.001997-0.039956C1000.46663 816.914937 871.686621 640.331007 690.030324 568.871353zM511.720311 546.79986c-129.19355 0-233.920266-104.727715-233.920267-233.918269 0-129.188555 104.727715-233.916271 233.920267-233.91627 129.186558 0 233.916271 104.727715 233.91627 233.91627C745.636581 442.072145 640.906868 546.79986 511.720311 546.79986z" p-id="2802"></path></svg>
