<?xml version="1.0" standalone="no"?><!DOCTYPE svg PUBLIC "-//W3C//DTD SVG 1.1//EN" "http://www.w3.org/Graphics/SVG/1.1/DTD/svg11.dtd"><svg t="1500862173463" class="icon" style="" viewBox="0 0 1256 1024" version="1.1" xmlns="http://www.w3.org/2000/svg" p-id="3793" xmlns:xlink="http://www.w3.org/1999/xlink" width="245.3125" height="200"><defs><style type="text/css"></style></defs><path d="M492.676 10.207c98.271-13.84 179.431-13.345 269.28 0 61.472 13.015 123.771 23.189 184.22 39.969 44.759 12.42 77.097 42.777 93.085 89.154 25.402 73.266 52.026 146.102 80.037 218.376 4.757 12.09 20.249 29.895 28.936 28.937 58.897-6.64 86.61 26.095 104.613 74.52 4.328 14.832 1.916 29.696 0 39.507-24.542 6.805-49.085 13.543-71.646 19.753 3.17 25.501 8.918 51.398 9.05 77.296 0.991 118.123 1.718 236.28-0.66 354.403-0.397 21.074-12.586 53.875-21.075 59.194-8.027 13.807-186.797 13.146-200.704 3.567-46.443-30.158-17.87-80.764-32.768-121.823H327.68c-11.76 43.438-18.762 116.373-32.933 121.823-30.918 11.892-196.641 12.321-205.89 0-12.552-8.886-21.075-44.693-22.726-67.683-3.436-49.747-1.454-99.89-0.958-149.867 0.925-92.788 2.312-185.576 3.534-278.99-17.408-4.56-42.182-11.133-66.956-17.706-1.355-8.886-3.138-19.753 0-31.612 17.21-51.134 42.38-90.607 106.892-82.382 7.796 0.99 22.165-15.658 26.426-26.823 22.032-57.74 45.684-115.381 61.44-174.971C222.902 84.662 295.275 44.362 387.667 26.59c34.783-6.64 70.028-11 105.01-16.384z m-277.339 395.66c279.156 57.774 546.717 59.128 821.182 0-23.056-71.019-46.179-134.11-63.587-198.656-14.997-55.428-50.87-82.712-104.283-85.09-130.18-5.847-260.393-10.505-390.606-11.496-42.876-0.33-86.38 9.81-128.463 19.852-17.342 4.162-40.167 17.375-46.08 32.24-31.05 77.593-57.542 157.101-88.163 243.15z m53.579 301.915c0.099-1.52-0.066 1.487 0 0 22.33 0 45.815-0.793 67.055-5.747 15.426-3.6 34.981-16.12 39.87-29.366 3.435-9.414-11.363-33.56-23.618-39.21-51.002-23.65-103.391-45.088-156.837-62.629-26.624-8.753-56.287-7.101-64.876 30.853-12.519 55.494-0.825 86.445 40.696 95.1 31.942 6.639 65.074 7.564 97.71 11z m723.34-0.165c28.837-3.468 64.578-4.757 98.8-12.717 46.773-10.736 36.897-50.21 35.806-83.638-0.924-28.606-18.696-50.11-44.461-42.083-64.413 19.984-128.363 43.536-188.978 72.935-27.846 13.543-17.87 50.87 13.808 57.807 25.369 5.516 52.092 4.987 85.025 7.696z m0 0" fill="" p-id="3794"></path></svg>